<?xml version="1.0" encoding="UTF-8"?>
<svg width="100px" height="100px" viewBox="0 0 100 100" version="1.1" xmlns="http://www.w3.org/2000/svg" xmlns:xlink="http://www.w3.org/1999/xlink">
    <!-- Generator: Sketch 54.1 (76490) - https://sketchapp.com -->
    <title>hit and run</title>
    <desc>Created with Sketch.</desc>
    <defs>
        <filter x="-35.6%" y="-25.0%" width="172.9%" height="150.0%" filterUnits="objectBoundingBox" id="filter-1">
            <feOffset dx="0" dy="0" in="SourceAlpha" result="shadowOffsetOuter1"></feOffset>
            <feGaussianBlur stdDeviation="2.5" in="shadowOffsetOuter1" result="shadowBlurOuter1"></feGaussianBlur>
            <feColorMatrix values="0 0 0 0 0.742272418   0 0 0 0 0.088444938   0 0 0 0 0  0 0 0 0.100770323 0" type="matrix" in="shadowBlurOuter1" result="shadowMatrixOuter1"></feColorMatrix>
            <feMerge>
                <feMergeNode in="shadowMatrixOuter1"></feMergeNode>
                <feMergeNode in="SourceGraphic"></feMergeNode>
            </feMerge>
        </filter>
        <path d="M0,14.5833333 C0,25.5208333 14.5833333,41.6666667 14.5833333,41.6666667 C14.5833333,41.6666667 29.1666667,25.5208333 29.1666667,14.5833333 C29.1666667,6.52083333 22.6458333,1.42108547e-14 14.5833333,1.42108547e-14 C6.52083333,1.42108547e-14 0,6.52083333 0,14.5833333 Z M14.75,25.5 C8.816,25.5 4,20.684 4,14.75 C4,8.816 8.816,4 14.75,4 C20.684,4 25.5,8.816 25.5,14.75 C25.5,20.684 20.684,25.5 14.75,25.5 L14.75,25.5 Z" id="path-2"></path>
        <rect id="path-4" x="0" y="0" width="104" height="104"></rect>
        <path d="M8.960625,3.4525 C9.854375,3.4525 10.585625,2.72125 10.585625,1.8275 C10.585625,0.93375 9.854375,0.2025 8.960625,0.2025 C8.066875,0.2025 7.335625,0.93375 7.335625,1.8275 C7.335625,2.72125 8.066875,3.4525 8.960625,3.4525 L8.960625,3.4525 Z M6.035625,14.74625 L6.848125,11.17125 L8.554375,12.79625 L8.554375,17.67125 L10.179375,17.67125 L10.179375,11.5775 L8.473125,9.9525 L8.960625,7.515 C10.016875,8.73375 11.641875,9.54625 13.429375,9.54625 L13.429375,7.92125 C11.885625,7.92125 10.585625,7.10875 9.935625,5.97125 L9.123125,4.67125 C8.798125,4.18375 8.310625,3.85875 7.741875,3.85875 C7.498125,3.85875 7.335625,3.94 7.091875,3.94 L2.866875,5.7275 L2.866875,9.54625 L4.491875,9.54625 L4.491875,6.78375 L5.954375,6.215 L4.654375,12.79625 L0.673125,11.98375 L0.348125,13.60875 L6.035625,14.74625 L6.035625,14.74625 Z" id="path-6"></path>
        <rect id="path-8" x="0" y="0" width="40.5" height="40.5"></rect>
    </defs>
    <g id="hit-and-run" stroke="none" stroke-width="1" fill="none" fill-rule="evenodd">
        <g id="Group" transform="translate(35.000000, 29.000000)">
            <g id="ic_place" filter="url(#filter-1)">
                <mask id="mask-3" fill="white">
                    <use xlink:href="#path-2"></use>
                </mask>
                <g id="Mask"></g>
                <g id="🎨-Color" mask="url(#mask-3)">
                    <g transform="translate(-37.500000, -31.000000)">
                        <mask id="mask-5" fill="white">
                            <use xlink:href="#path-4"></use>
                        </mask>
                        <use id="Black" stroke="none" fill="#F38181" fill-rule="evenodd" xlink:href="#path-4"></use>
                    </g>
                </g>
            </g>
            <g id="ic_directions_run" transform="translate(7.500000, 6.000000)">
                <mask id="mask-7" fill="white">
                    <use xlink:href="#path-6"></use>
                </mask>
                <g id="Mask"></g>
                <g id="🎨-Color" mask="url(#mask-7)">
                    <g transform="translate(-12.500000, -11.500000)">
                        <mask id="mask-9" fill="white">
                            <use xlink:href="#path-8"></use>
                        </mask>
                        <use id="Black" stroke="none" fill="#F38181" fill-rule="evenodd" xlink:href="#path-8"></use>
                    </g>
                </g>
            </g>
        </g>
    </g>
</svg>