<?xml version="1.0" encoding="UTF-8"?>
<svg width="100px" height="100px" viewBox="0 0 100 100" version="1.1" xmlns="http://www.w3.org/2000/svg" xmlns:xlink="http://www.w3.org/1999/xlink">
    <!-- Generator: Sketch 54.1 (76490) - https://sketchapp.com -->
    <title>kidnapping</title>
    <desc>Created with Sketch.</desc>
    <defs>
        <filter x="-17.8%" y="-12.5%" width="135.6%" height="125.0%" filterUnits="objectBoundingBox" id="filter-1">
            <feOffset dx="0" dy="0" in="SourceAlpha" result="shadowOffsetOuter1"></feOffset>
            <feGaussianBlur stdDeviation="2.5" in="shadowOffsetOuter1" result="shadowBlurOuter1"></feGaussianBlur>
            <feColorMatrix values="0 0 0 0 0   0 0 0 0 0.80542346   0 0 0 0 0.113174669  0 0 0 0.1 0" type="matrix" in="shadowBlurOuter1" result="shadowMatrixOuter1"></feColorMatrix>
            <feMerge>
                <feMergeNode in="shadowMatrixOuter1"></feMergeNode>
                <feMergeNode in="SourceGraphic"></feMergeNode>
            </feMerge>
        </filter>
        <path d="M29.1666667,1.42108547e-14 C13.0416667,1.42108547e-14 0,13.0416667 0,29.1666667 C0,51.0416667 29.1666667,83.3333333 29.1666667,83.3333333 C29.1666667,83.3333333 58.3333333,51.0416667 58.3333333,29.1666667 C58.3333333,13.0416667 45.2916667,1.42108547e-14 29.1666667,1.42108547e-14 L29.1666667,1.42108547e-14 Z M29.5,51 C17.632,51 8,41.368 8,29.5 C8,17.632 17.632,8 29.5,8 C41.368,8 51,17.632 51,29.5 C51,41.368 41.368,51 29.5,51 L29.5,51 Z" id="path-2"></path>
        <rect id="path-4" x="0" y="0" width="208" height="208"></rect>
        <path d="M11.5,0 C12.9055556,0 14.0555556,1.125 14.0555556,2.5 C14.0555556,3.875 12.9055556,5 11.5,5 C10.0944444,5 8.94444444,3.875 8.94444444,2.5 C8.94444444,1.125 10.0944444,0 11.5,0 L11.5,0 Z M23,8.75 L15.3333333,8.75 L15.3333333,25 L12.7777778,25 L12.7777778,17.5 L10.2222222,17.5 L10.2222222,25 L7.66666667,25 L7.66666667,8.75 L0,8.75 L0,6.25 L23,6.25 L23,8.75 L23,8.75 Z" id="path-6"></path>
        <rect id="path-8" x="0" y="0" width="63.8888889" height="62.5"></rect>
        <path d="M1.92857143,25 L1.92857143,15.625 L0,15.625 L0,8.75 C0,7.375 1.15714286,6.25 2.57142857,6.25 L6.42857143,6.25 C7.84285714,6.25 9,7.375 9,8.75 L9,15.625 L7.07142857,15.625 L7.07142857,25 L1.92857143,25 L1.92857143,25 Z M4.5,5 C5.92714286,5 7.07142857,3.8875 7.07142857,2.5 C7.07142857,1.1125 5.92714286,0 4.5,0 C3.07285714,0 1.92857143,1.1125 1.92857143,2.5 C1.92857143,3.8875 3.07285714,5 4.5,5 L4.5,5 Z" id="path-10"></path>
        <rect id="path-12" x="0" y="0" width="64.2857143" height="62.5"></rect>
    </defs>
    <g id="kidnapping" stroke="none" stroke-width="1" fill="none" fill-rule="evenodd">
        <g id="ic_place" filter="url(#filter-1)" transform="translate(21.000000, 8.000000)">
            <mask id="mask-3" fill="white">
                <use xlink:href="#path-2"></use>
            </mask>
            <g id="Mask"></g>
            <g id="🎨-Color" mask="url(#mask-3)">
                <g transform="translate(-75.000000, -62.000000)">
                    <mask id="mask-5" fill="white">
                        <use xlink:href="#path-4"></use>
                    </mask>
                    <use id="Black" stroke="none" fill="#70E490" fill-rule="evenodd" xlink:href="#path-4"></use>
                </g>
            </g>
        </g>
        <g id="Group-2" transform="translate(39.000000, 25.000000)">
            <rect id="Rectangle" fill="#70E490" x="24.5" y="6" width="1.5" height="6"></rect>
            <g id="Group" transform="translate(0.000000, 1.000000)">
                <g id="ic_accessibility" transform="translate(4.000000, 0.000000)">
                    <mask id="mask-7" fill="white">
                        <use xlink:href="#path-6"></use>
                    </mask>
                    <g id="Mask"></g>
                    <g id="🎨-Color" mask="url(#mask-7)">
                        <g transform="translate(-20.444444, -18.750000)">
                            <mask id="mask-9" fill="white">
                                <use xlink:href="#path-8"></use>
                            </mask>
                            <use id="Black" stroke="none" fill="#70E490" fill-rule="evenodd" xlink:href="#path-8"></use>
                        </g>
                    </g>
                </g>
                <g id="ic_wc">
                    <mask id="mask-11" fill="white">
                        <use xlink:href="#path-10"></use>
                    </mask>
                    <g id="Mask"></g>
                    <g id="🎨-Color" mask="url(#mask-11)">
                        <g transform="translate(-21.857143, -18.750000)">
                            <mask id="mask-13" fill="white">
                                <use xlink:href="#path-12"></use>
                            </mask>
                            <use id="Black" stroke="none" fill="#70E490" fill-rule="evenodd" xlink:href="#path-12"></use>
                        </g>
                    </g>
                </g>
            </g>
            <polygon id="Rectangle" fill="#70E490" points="24.25 0 26.25 2.42684491 26.25 9 24.25 9"></polygon>
        </g>
    </g>
</svg>