<?xml version="1.0" encoding="UTF-8"?>
<svg width="50px" height="50px" viewBox="0 0 50 50" version="1.1" xmlns="http://www.w3.org/2000/svg" xmlns:xlink="http://www.w3.org/1999/xlink">
    <!-- Generator: Sketch 54.1 (76490) - https://sketchapp.com -->
    <title>kidnapping</title>
    <desc>Created with Sketch.</desc>
    <defs>
        <filter x="-35.6%" y="-25.0%" width="172.9%" height="150.0%" filterUnits="objectBoundingBox" id="filter-1">
            <feOffset dx="0" dy="0" in="SourceAlpha" result="shadowOffsetOuter1"></feOffset>
            <feGaussianBlur stdDeviation="2.5" in="shadowOffsetOuter1" result="shadowBlurOuter1"></feGaussianBlur>
            <feColorMatrix values="0 0 0 0 0   0 0 0 0 0.80542346   0 0 0 0 0.113174669  0 0 0 0.1 0" type="matrix" in="shadowBlurOuter1" result="shadowMatrixOuter1"></feColorMatrix>
            <feMerge>
                <feMergeNode in="shadowMatrixOuter1"></feMergeNode>
                <feMergeNode in="SourceGraphic"></feMergeNode>
            </feMerge>
        </filter>
        <path d="M14.5833333,1.42108547e-14 C6.52083333,1.42108547e-14 0,6.52083333 0,14.5833333 C0,25.5208333 14.5833333,41.6666667 14.5833333,41.6666667 C14.5833333,41.6666667 29.1666667,25.5208333 29.1666667,14.5833333 C29.1666667,6.52083333 22.6458333,1.42108547e-14 14.5833333,1.42108547e-14 L14.5833333,1.42108547e-14 Z M14.75,25.5 C8.816,25.5 4,20.684 4,14.75 C4,8.816 8.816,4 14.75,4 C20.684,4 25.5,8.816 25.5,14.75 C25.5,20.684 20.684,25.5 14.75,25.5 L14.75,25.5 Z" id="path-2"></path>
        <rect id="path-4" x="0" y="0" width="104" height="104"></rect>
        <path d="M5.75,0 C6.45277778,0 7.02777778,0.5625 7.02777778,1.25 C7.02777778,1.9375 6.45277778,2.5 5.75,2.5 C5.04722222,2.5 4.47222222,1.9375 4.47222222,1.25 C4.47222222,0.5625 5.04722222,0 5.75,0 L5.75,0 Z M11.5,4.375 L7.66666667,4.375 L7.66666667,12.5 L6.38888889,12.5 L6.38888889,8.75 L5.11111111,8.75 L5.11111111,12.5 L3.83333333,12.5 L3.83333333,4.375 L0,4.375 L0,3.125 L11.5,3.125 L11.5,4.375 L11.5,4.375 Z" id="path-6"></path>
        <rect id="path-8" x="0" y="0" width="31.9444444" height="31.25"></rect>
        <path d="M0.964285714,12.5 L0.964285714,7.8125 L0,7.8125 L0,4.375 C0,3.6875 0.578571429,3.125 1.28571429,3.125 L3.21428571,3.125 C3.92142857,3.125 4.5,3.6875 4.5,4.375 L4.5,7.8125 L3.53571429,7.8125 L3.53571429,12.5 L0.964285714,12.5 L0.964285714,12.5 Z M2.25,2.5 C2.96357143,2.5 3.53571429,1.94375 3.53571429,1.25 C3.53571429,0.55625 2.96357143,0 2.25,0 C1.53642857,0 0.964285714,0.55625 0.964285714,1.25 C0.964285714,1.94375 1.53642857,2.5 2.25,2.5 L2.25,2.5 Z" id="path-10"></path>
        <rect id="path-12" x="0" y="0" width="32.1428571" height="31.25"></rect>
    </defs>
    <g id="kidnapping" stroke="none" stroke-width="1" fill="none" fill-rule="evenodd">
        <g id="Group-3" transform="translate(10.000000, 4.000000)">
            <g id="ic_place" filter="url(#filter-1)">
                <mask id="mask-3" fill="white">
                    <use xlink:href="#path-2"></use>
                </mask>
                <g id="Mask"></g>
                <g id="🎨-Color" mask="url(#mask-3)">
                    <g transform="translate(-37.500000, -31.000000)">
                        <mask id="mask-5" fill="white">
                            <use xlink:href="#path-4"></use>
                        </mask>
                        <use id="Black" stroke="none" fill="#70E490" fill-rule="evenodd" xlink:href="#path-4"></use>
                    </g>
                </g>
            </g>
            <g id="Group-2" transform="translate(9.000000, 8.500000)">
                <rect id="Rectangle" fill="#70E490" x="12.25" y="3" width="1" height="3"></rect>
                <g id="Group" transform="translate(0.000000, 0.500000)">
                    <g id="ic_accessibility" transform="translate(2.000000, 0.000000)">
                        <mask id="mask-7" fill="white">
                            <use xlink:href="#path-6"></use>
                        </mask>
                        <g id="Mask"></g>
                        <g id="🎨-Color" mask="url(#mask-7)">
                            <g transform="translate(-10.222222, -9.375000)">
                                <mask id="mask-9" fill="white">
                                    <use xlink:href="#path-8"></use>
                                </mask>
                                <use id="Black" stroke="none" fill="#70E490" fill-rule="evenodd" xlink:href="#path-8"></use>
                            </g>
                        </g>
                    </g>
                    <g id="ic_wc">
                        <mask id="mask-11" fill="white">
                            <use xlink:href="#path-10"></use>
                        </mask>
                        <g id="Mask"></g>
                        <g id="🎨-Color" mask="url(#mask-11)">
                            <g transform="translate(-10.928571, -9.375000)">
                                <mask id="mask-13" fill="white">
                                    <use xlink:href="#path-12"></use>
                                </mask>
                                <use id="Black" stroke="none" fill="#70E490" fill-rule="evenodd" xlink:href="#path-12"></use>
                            </g>
                        </g>
                    </g>
                </g>
                <polygon id="Rectangle" fill="#70E490" points="12.125 0 13.125 1.21342245 13.125 4.5 12.125 4.5"></polygon>
            </g>
        </g>
    </g>
</svg>