<?xml version="1.0" encoding="UTF-8"?>
<svg width="100px" height="100px" viewBox="0 0 100 100" version="1.1" xmlns="http://www.w3.org/2000/svg" xmlns:xlink="http://www.w3.org/1999/xlink">
    <!-- Generator: Sketch 54.1 (76490) - https://sketchapp.com -->
    <title>missing</title>
    <desc>Created with Sketch.</desc>
    <defs>
        <filter x="-35.6%" y="-25.0%" width="172.9%" height="150.0%" filterUnits="objectBoundingBox" id="filter-1">
            <feOffset dx="0" dy="0" in="SourceAlpha" result="shadowOffsetOuter1"></feOffset>
            <feGaussianBlur stdDeviation="2.5" in="shadowOffsetOuter1" result="shadowBlurOuter1"></feGaussianBlur>
            <feColorMatrix values="0 0 0 0 0.882954031   0 0 0 0 0.767278563   0 0 0 0 0  0 0 0 0.1 0" type="matrix" in="shadowBlurOuter1" result="shadowMatrixOuter1"></feColorMatrix>
            <feMerge>
                <feMergeNode in="shadowMatrixOuter1"></feMergeNode>
                <feMergeNode in="SourceGraphic"></feMergeNode>
            </feMerge>
        </filter>
        <path d="M14.5833333,1.42108547e-14 C6.52083333,1.42108547e-14 0,6.52083333 0,14.5833333 C0,25.5208333 14.5833333,41.6666667 14.5833333,41.6666667 C14.5833333,41.6666667 29.1666667,25.5208333 29.1666667,14.5833333 C29.1666667,6.52083333 22.6458333,1.42108547e-14 14.5833333,1.42108547e-14 L14.5833333,1.42108547e-14 Z M14.75,25.5 C8.816,25.5 4,20.684 4,14.75 C4,8.816 8.816,4 14.75,4 C20.684,4 25.5,8.816 25.5,14.75 C25.5,20.684 20.684,25.5 14.75,25.5 L14.75,25.5 Z" id="path-2"></path>
        <rect id="path-4" x="0" y="0" width="104" height="104"></rect>
        <path d="M6.25,7.86675347 C8.42697011,7.86675347 10.1902174,6.10656738 10.1902174,3.93337674 C10.1902174,1.76018609 8.42697011,0 6.25,0 C4.07302989,0 2.30978261,1.76018609 2.30978261,3.93337674 C2.30978261,6.10656738 4.07302989,7.86675347 6.25,7.86675347 L6.25,7.86675347 Z M6.25,8.68055556 C4.1640625,8.68055556 0,9.64988426 0,11.5740741 L0,13.0208333 L12.5,13.0208333 L12.5,11.5740741 C12.5,9.64988426 8.3359375,8.68055556 6.25,8.68055556 L6.25,8.68055556 Z" id="path-6"></path>
        <rect id="path-8" x="0" y="0" width="49.4791667" height="49.4791667"></rect>
    </defs>
    <g id="missing" stroke="none" stroke-width="1" fill="none" fill-rule="evenodd">
        <g id="Group" transform="translate(35.000000, 29.000000)">
            <g id="ic_place" filter="url(#filter-1)">
                <mask id="mask-3" fill="white">
                    <use xlink:href="#path-2"></use>
                </mask>
                <g id="Mask"></g>
                <g id="🎨-Color" mask="url(#mask-3)">
                    <g transform="translate(-37.500000, -31.000000)">
                        <mask id="mask-5" fill="white">
                            <use xlink:href="#path-4"></use>
                        </mask>
                        <use id="Black" stroke="none" fill="#F1E83F" fill-rule="evenodd" xlink:href="#path-4"></use>
                    </g>
                </g>
            </g>
            <g id="ic_person" transform="translate(8.500000, 7.000000)">
                <mask id="mask-7" fill="white">
                    <use xlink:href="#path-6"></use>
                </mask>
                <g id="Mask"></g>
                <g id="🎨-Color" mask="url(#mask-7)">
                    <g transform="translate(-17.708333, -17.708333)">
                        <mask id="mask-9" fill="white">
                            <use xlink:href="#path-8"></use>
                        </mask>
                        <use id="Black" stroke="none" fill="#F1E83F" fill-rule="evenodd" xlink:href="#path-8"></use>
                    </g>
                </g>
                <text id="?" mask="url(#mask-7)" font-family="AvenirNext-Bold, Avenir Next" font-size="6.5" font-weight="bold" letter-spacing="0.975" fill="#FFFFFF">
                    <tspan x="4.38175" y="6.3">?</tspan>
                </text>
            </g>
        </g>
    </g>
</svg>