<?xml version="1.0" encoding="UTF-8"?>
<svg width="100px" height="100px" viewBox="0 0 100 100" version="1.1" xmlns="http://www.w3.org/2000/svg" xmlns:xlink="http://www.w3.org/1999/xlink">
    <!-- Generator: Sketch 54.1 (76490) - https://sketchapp.com -->
    <title>missing</title>
    <desc>Created with Sketch.</desc>
    <defs>
        <filter x="-17.8%" y="-12.5%" width="135.6%" height="125.0%" filterUnits="objectBoundingBox" id="filter-1">
            <feOffset dx="0" dy="0" in="SourceAlpha" result="shadowOffsetOuter1"></feOffset>
            <feGaussianBlur stdDeviation="2.5" in="shadowOffsetOuter1" result="shadowBlurOuter1"></feGaussianBlur>
            <feColorMatrix values="0 0 0 0 0.882954031   0 0 0 0 0.767278563   0 0 0 0 0  0 0 0 0.1 0" type="matrix" in="shadowBlurOuter1" result="shadowMatrixOuter1"></feColorMatrix>
            <feMerge>
                <feMergeNode in="shadowMatrixOuter1"></feMergeNode>
                <feMergeNode in="SourceGraphic"></feMergeNode>
            </feMerge>
        </filter>
        <path d="M29.1666667,1.42108547e-14 C13.0416667,1.42108547e-14 0,13.0416667 0,29.1666667 C0,51.0416667 29.1666667,83.3333333 29.1666667,83.3333333 C29.1666667,83.3333333 58.3333333,51.0416667 58.3333333,29.1666667 C58.3333333,13.0416667 45.2916667,1.42108547e-14 29.1666667,1.42108547e-14 L29.1666667,1.42108547e-14 Z M29.5,51 C17.632,51 8,41.368 8,29.5 C8,17.632 17.632,8 29.5,8 C41.368,8 51,17.632 51,29.5 C51,41.368 41.368,51 29.5,51 L29.5,51 Z" id="path-2"></path>
        <rect id="path-4" x="0" y="0" width="208" height="208"></rect>
        <path d="M12.5,15.7335069 C16.8539402,15.7335069 20.3804348,12.2131348 20.3804348,7.86675347 C20.3804348,3.52037218 16.8539402,0 12.5,0 C8.14605978,0 4.61956522,3.52037218 4.61956522,7.86675347 C4.61956522,12.2131348 8.14605978,15.7335069 12.5,15.7335069 L12.5,15.7335069 Z M12.5,17.3611111 C8.328125,17.3611111 0,19.2997685 0,23.1481481 L0,26.0416667 L25,26.0416667 L25,23.1481481 C25,19.2997685 16.671875,17.3611111 12.5,17.3611111 L12.5,17.3611111 Z" id="path-6"></path>
        <rect id="path-8" x="0" y="0" width="98.9583333" height="98.9583333"></rect>
    </defs>
    <g id="missing" stroke="none" stroke-width="1" fill="none" fill-rule="evenodd">
        <g id="ic_place" filter="url(#filter-1)" transform="translate(21.000000, 8.000000)">
            <mask id="mask-3" fill="white">
                <use xlink:href="#path-2"></use>
            </mask>
            <g id="Mask"></g>
            <g id="🎨-Color" mask="url(#mask-3)">
                <g transform="translate(-75.000000, -62.000000)">
                    <mask id="mask-5" fill="white">
                        <use xlink:href="#path-4"></use>
                    </mask>
                    <use id="Black" stroke="none" fill="#F1E83F" fill-rule="evenodd" xlink:href="#path-4"></use>
                </g>
            </g>
        </g>
        <g id="ic_person" transform="translate(38.000000, 22.000000)">
            <mask id="mask-7" fill="white">
                <use xlink:href="#path-6"></use>
            </mask>
            <g id="Mask"></g>
            <g id="🎨-Color" mask="url(#mask-7)">
                <g transform="translate(-35.416667, -35.416667)">
                    <mask id="mask-9" fill="white">
                        <use xlink:href="#path-8"></use>
                    </mask>
                    <use id="Black" stroke="none" fill="#F1E83F" fill-rule="evenodd" xlink:href="#path-8"></use>
                </g>
            </g>
            <text id="?" mask="url(#mask-7)" font-family="AvenirNext-Bold, Avenir Next" font-size="13" font-weight="bold" letter-spacing="0.975" fill="#FFFFFF">
                <tspan x="8.98433333" y="12.3333333">?</tspan>
            </text>
        </g>
    </g>
</svg>