<?xml version="1.0" encoding="UTF-8"?>
<svg width="100px" height="100px" viewBox="0 0 100 100" version="1.1" xmlns="http://www.w3.org/2000/svg" xmlns:xlink="http://www.w3.org/1999/xlink">
    <!-- Generator: Sketch 54.1 (76490) - https://sketchapp.com -->
    <title>murder</title>
    <desc>Created with Sketch.</desc>
    <defs>
        <filter x="-36.2%" y="-25.0%" width="172.4%" height="150.0%" filterUnits="objectBoundingBox" id="filter-1">
            <feOffset dx="0" dy="0" in="SourceAlpha" result="shadowOffsetOuter1"></feOffset>
            <feGaussianBlur stdDeviation="2.5" in="shadowOffsetOuter1" result="shadowBlurOuter1"></feGaussianBlur>
            <feColorMatrix values="0 0 0 0 0   0 0 0 0 0.552500447   0 0 0 0 0.698312953  0 0 0 0.1 0" type="matrix" in="shadowBlurOuter1" result="shadowMatrixOuter1"></feColorMatrix>
            <feMerge>
                <feMergeNode in="shadowMatrixOuter1"></feMergeNode>
                <feMergeNode in="SourceGraphic"></feMergeNode>
            </feMerge>
        </filter>
        <path d="M14.3361582,1.42108547e-14 C6.41031073,1.42108547e-14 0,6.52083333 0,14.5833333 C0,25.5208333 14.3361582,41.6666667 14.3361582,41.6666667 C14.3361582,41.6666667 28.6723164,25.5208333 28.6723164,14.5833333 C28.6723164,6.52083333 22.2620056,1.42108547e-14 14.3361582,1.42108547e-14 L14.3361582,1.42108547e-14 Z M14.5,25.5 C8.66657627,25.5 3.93220339,20.684 3.93220339,14.75 C3.93220339,8.816 8.66657627,4 14.5,4 C20.3334237,4 25.0677966,8.816 25.0677966,14.75 C25.0677966,20.684 20.3334237,25.5 14.5,25.5 L14.5,25.5 Z" id="path-2"></path>
        <rect id="path-4" x="0" y="0" width="102.237288" height="104"></rect>
        <path d="M1.17557268,10 L0,10 L0,5.6 C0,4.72 0.705343607,4 1.56743024,4 L3.91857559,4 C4.78066222,4 5.18508671,4.53201983 5.48600583,5.6 C5.78692495,6.66798017 5.69516214,6.78167752 6.13219794,7.5080266 C6.52728326,7.7495193 7.37288136,8.08346452 7.37288136,8.08346452 L6.93142964,8.99923921 C6.93142964,8.99923921 6.13090411,8.79689187 5.37519023,8.32 C4.57186009,7.29166137 4.31043315,5.78472679 4.31043315,5.78472679 L4.31043315,16 L1.17557268,16 L1.17557268,10 Z M2.74300291,3.2 C3.6129267,3.2 4.31043315,2.488 4.31043315,1.6 C4.31043315,0.712 3.6129267,0 2.74300291,0 C1.87307913,0 1.17557268,0.712 1.17557268,1.6 C1.17557268,2.488 1.87307913,3.2 2.74300291,3.2 L2.74300291,3.2 Z" id="path-6"></path>
        <rect id="path-8" x="0" y="0" width="38.8305085" height="40"></rect>
    </defs>
    <g id="murder" stroke="none" stroke-width="1" fill="none" fill-rule="evenodd">
        <g id="Group-3" transform="translate(36.000000, 29.000000)">
            <g id="ic_place" filter="url(#filter-1)">
                <mask id="mask-3" fill="white">
                    <use xlink:href="#path-2"></use>
                </mask>
                <g id="Mask"></g>
                <g id="🎨-Color" mask="url(#mask-3)">
                    <g transform="translate(-36.864407, -31.000000)">
                        <mask id="mask-5" fill="white">
                            <use xlink:href="#path-4"></use>
                        </mask>
                        <use id="Black" stroke="none" fill="#38CFE7" fill-rule="evenodd" xlink:href="#path-4"></use>
                    </g>
                </g>
            </g>
            <g id="Group" transform="translate(10.322034, 6.500000)">
                <g id="Group-2" transform="translate(7.765629, 6.500000) rotate(30.000000) translate(-7.765629, -6.500000) translate(7.028341, 3.500000)" fill="#38CFE7">
                    <rect id="Rectangle" x="0.245762712" y="3" width="1" height="3"></rect>
                    <polygon id="Rectangle" points="0.122881356 0 1.1059322 1.21342245 1.1059322 4.5 0.122881356 4.5"></polygon>
                </g>
                <g id="ic_wc">
                    <mask id="mask-7" fill="white">
                        <use xlink:href="#path-6"></use>
                    </mask>
                    <g id="Mask"></g>
                    <g id="🎨-Color" mask="url(#mask-7)">
                        <g transform="translate(-12.779661, -12.000000)">
                            <mask id="mask-9" fill="white">
                                <use xlink:href="#path-8"></use>
                            </mask>
                            <use id="Black" stroke="none" fill="#38CFE7" fill-rule="evenodd" xlink:href="#path-8"></use>
                        </g>
                    </g>
                </g>
            </g>
        </g>
    </g>
</svg>