<?xml version="1.0" encoding="UTF-8"?>
<svg width="100px" height="100px" viewBox="0 0 100 100" version="1.1" xmlns="http://www.w3.org/2000/svg" xmlns:xlink="http://www.w3.org/1999/xlink">
    <!-- Generator: Sketch 54.1 (76490) - https://sketchapp.com -->
    <title>murder</title>
    <desc>Created with Sketch.</desc>
    <defs>
        <filter x="-17.8%" y="-12.5%" width="135.6%" height="125.0%" filterUnits="objectBoundingBox" id="filter-1">
            <feOffset dx="0" dy="0" in="SourceAlpha" result="shadowOffsetOuter1"></feOffset>
            <feGaussianBlur stdDeviation="2.5" in="shadowOffsetOuter1" result="shadowBlurOuter1"></feGaussianBlur>
            <feColorMatrix values="0 0 0 0 0   0 0 0 0 0.552500447   0 0 0 0 0.698312953  0 0 0 0.1 0" type="matrix" in="shadowBlurOuter1" result="shadowMatrixOuter1"></feColorMatrix>
            <feMerge>
                <feMergeNode in="shadowMatrixOuter1"></feMergeNode>
                <feMergeNode in="SourceGraphic"></feMergeNode>
            </feMerge>
        </filter>
        <path d="M29.1666667,1.42108547e-14 C13.0416667,1.42108547e-14 0,13.0416667 0,29.1666667 C0,51.0416667 29.1666667,83.3333333 29.1666667,83.3333333 C29.1666667,83.3333333 58.3333333,51.0416667 58.3333333,29.1666667 C58.3333333,13.0416667 45.2916667,1.42108547e-14 29.1666667,1.42108547e-14 L29.1666667,1.42108547e-14 Z M29.5,51 C17.632,51 8,41.368 8,29.5 C8,17.632 17.632,8 29.5,8 C41.368,8 51,17.632 51,29.5 C51,41.368 41.368,51 29.5,51 L29.5,51 Z" id="path-2"></path>
        <rect id="path-4" x="0" y="0" width="208" height="208"></rect>
        <path d="M2.39168234,20 L0,20 L0,11.2 C0,9.44 1.43500941,8 3.18890979,8 L7.97227448,8 C9.72617487,8 10.5489695,9.06403965 11.1611843,11.2 C11.773399,13.3359603 11.5867092,13.563355 12.475851,15.0160532 C13.2796452,15.4990386 15,16.166929 15,16.166929 L14.1018741,17.9984784 C14.1018741,17.9984784 12.4732187,17.5937837 10.9357319,16.64 C9.30137052,14.5833227 8.76950193,11.5694536 8.76950193,11.5694536 L8.76950193,32 L2.39168234,32 L2.39168234,20 Z M5.58059214,6.4 C7.35043707,6.4 8.76950193,4.976 8.76950193,3.2 C8.76950193,1.424 7.35043707,0 5.58059214,0 C3.8107472,0 2.39168234,1.424 2.39168234,3.2 C2.39168234,4.976 3.8107472,6.4 5.58059214,6.4 L5.58059214,6.4 Z" id="path-6"></path>
        <rect id="path-8" x="0" y="0" width="79" height="80"></rect>
    </defs>
    <g id="murder" stroke="none" stroke-width="1" fill="none" fill-rule="evenodd">
        <g id="ic_place" filter="url(#filter-1)" transform="translate(21.000000, 8.000000)">
            <mask id="mask-3" fill="white">
                <use xlink:href="#path-2"></use>
            </mask>
            <g id="Mask"></g>
            <g id="🎨-Color" mask="url(#mask-3)">
                <g transform="translate(-75.000000, -62.000000)">
                    <mask id="mask-5" fill="white">
                        <use xlink:href="#path-4"></use>
                    </mask>
                    <use id="Black" stroke="none" fill="#38CFE7" fill-rule="evenodd" xlink:href="#path-4"></use>
                </g>
            </g>
        </g>
        <g id="Group" transform="translate(42.000000, 21.000000)">
            <g id="Group-2" transform="translate(15.799038, 13.000000) rotate(30.000000) translate(-15.799038, -13.000000) translate(14.299038, 7.000000)" fill="#38CFE7">
                <rect id="Rectangle" x="0.5" y="6" width="1.5" height="6"></rect>
                <polygon id="Rectangle" points="0.25 0 2.25 2.42684491 2.25 9 0.25 9"></polygon>
            </g>
            <g id="ic_wc">
                <mask id="mask-7" fill="white">
                    <use xlink:href="#path-6"></use>
                </mask>
                <g id="Mask"></g>
                <g id="🎨-Color" mask="url(#mask-7)">
                    <g transform="translate(-26.000000, -24.000000)">
                        <mask id="mask-9" fill="white">
                            <use xlink:href="#path-8"></use>
                        </mask>
                        <use id="Black" stroke="none" fill="#38CFE7" fill-rule="evenodd" xlink:href="#path-8"></use>
                    </g>
                </g>
            </g>
        </g>
    </g>
</svg>