<?xml version="1.0" encoding="UTF-8"?>
<svg width="50px" height="50px" viewBox="0 0 50 50" version="1.1" xmlns="http://www.w3.org/2000/svg" xmlns:xlink="http://www.w3.org/1999/xlink">
    <!-- Generator: Sketch 54.1 (76490) - https://sketchapp.com -->
    <title>murder</title>
    <desc>Created with Sketch.</desc>
    <defs>
        <filter x="-35.6%" y="-25.0%" width="172.9%" height="150.0%" filterUnits="objectBoundingBox" id="filter-1">
            <feOffset dx="0" dy="0" in="SourceAlpha" result="shadowOffsetOuter1"></feOffset>
            <feGaussianBlur stdDeviation="2.5" in="shadowOffsetOuter1" result="shadowBlurOuter1"></feGaussianBlur>
            <feColorMatrix values="0 0 0 0 0   0 0 0 0 0.552500447   0 0 0 0 0.698312953  0 0 0 0.1 0" type="matrix" in="shadowBlurOuter1" result="shadowMatrixOuter1"></feColorMatrix>
            <feMerge>
                <feMergeNode in="shadowMatrixOuter1"></feMergeNode>
                <feMergeNode in="SourceGraphic"></feMergeNode>
            </feMerge>
        </filter>
        <path d="M14.5833333,1.42108547e-14 C6.52083333,1.42108547e-14 0,6.52083333 0,14.5833333 C0,25.5208333 14.5833333,41.6666667 14.5833333,41.6666667 C14.5833333,41.6666667 29.1666667,25.5208333 29.1666667,14.5833333 C29.1666667,6.52083333 22.6458333,1.42108547e-14 14.5833333,1.42108547e-14 L14.5833333,1.42108547e-14 Z M14.75,25.5 C8.816,25.5 4,20.684 4,14.75 C4,8.816 8.816,4 14.75,4 C20.684,4 25.5,8.816 25.5,14.75 C25.5,20.684 20.684,25.5 14.75,25.5 L14.75,25.5 Z" id="path-2"></path>
        <rect id="path-4" x="0" y="0" width="104" height="104"></rect>
        <path d="M1.19584117,10 L0,10 L0,5.6 C0,4.72 0.717504703,4 1.5944549,4 L3.98613724,4 C4.86308743,4 5.27448475,4.53201983 5.58059214,5.6 C5.88669952,6.66798017 5.79335459,6.78167752 6.23792549,7.5080266 C6.63982262,7.7495193 7.5,8.08346452 7.5,8.08346452 L7.05093704,8.99923921 C7.05093704,8.99923921 6.23660936,8.79689187 5.46786593,8.32 C4.65068526,7.29166137 4.38475096,5.78472679 4.38475096,5.78472679 L4.38475096,16 L1.19584117,16 L1.19584117,10 Z M2.79029607,3.2 C3.67521854,3.2 4.38475096,2.488 4.38475096,1.6 C4.38475096,0.712 3.67521854,0 2.79029607,0 C1.9053736,0 1.19584117,0.712 1.19584117,1.6 C1.19584117,2.488 1.9053736,3.2 2.79029607,3.2 L2.79029607,3.2 Z" id="path-6"></path>
        <rect id="path-8" x="0" y="0" width="39.5" height="40"></rect>
    </defs>
    <g id="murder" stroke="none" stroke-width="1" fill="none" fill-rule="evenodd">
        <g id="Group-3" transform="translate(10.000000, 4.000000)">
            <g id="ic_place" filter="url(#filter-1)">
                <mask id="mask-3" fill="white">
                    <use xlink:href="#path-2"></use>
                </mask>
                <g id="Mask"></g>
                <g id="🎨-Color" mask="url(#mask-3)">
                    <g transform="translate(-37.500000, -31.000000)">
                        <mask id="mask-5" fill="white">
                            <use xlink:href="#path-4"></use>
                        </mask>
                        <use id="Black" stroke="none" fill="#38CFE7" fill-rule="evenodd" xlink:href="#path-4"></use>
                    </g>
                </g>
            </g>
            <g id="Group" transform="translate(10.500000, 6.500000)">
                <g id="Group-2" transform="translate(7.899519, 6.500000) rotate(30.000000) translate(-7.899519, -6.500000) translate(7.149519, 3.500000)" fill="#38CFE7">
                    <rect id="Rectangle" x="0.25" y="3" width="1" height="3"></rect>
                    <polygon id="Rectangle" points="0.125 0 1.125 1.21342245 1.125 4.5 0.125 4.5"></polygon>
                </g>
                <g id="ic_wc">
                    <mask id="mask-7" fill="white">
                        <use xlink:href="#path-6"></use>
                    </mask>
                    <g id="Mask"></g>
                    <g id="🎨-Color" mask="url(#mask-7)">
                        <g transform="translate(-13.000000, -12.000000)">
                            <mask id="mask-9" fill="white">
                                <use xlink:href="#path-8"></use>
                            </mask>
                            <use id="Black" stroke="none" fill="#38CFE7" fill-rule="evenodd" xlink:href="#path-8"></use>
                        </g>
                    </g>
                </g>
            </g>
        </g>
    </g>
</svg>